#!OML:ASF F:\twosubjects\two\Thursday\Session 1\Rory.ASF
:FULLY-SPECIFIED
:DEGREES
337
root 6.86569 17.027 0.393468 217.2 -0.787323 178.058
lowerback 17.8623 0.201828 -2.30501
upperback 8.40132 -1.45829 -0.131158
thorax -0.980477 -1.31752 1.43973
lowerneck -12.1345 -4.84376 -3.41689
upperneck -11.7288 -4.3344 8.13368
head -1.4123 -1.4408 3.10549
rclavicle 1.64991e-014 -6.95746e-016
rhumerus -16.1447 38.1577 -84.4067
rradius 76.9079
rwrist -0.583173
rhand -63.7498 76.3337
rfingers 7.12502
rthumb -35.7138 49.9474
lclavicle 1.64991e-014 -6.95746e-016
lhumerus -22.0888 -39.871 84.5001
lradius 78.7302
lwrist -17.4083
lhand -31.8198 1349.4
lfingers 7.12502
lthumb -5.07477 599.477
rfemur -30.7505 1.15517 -2.82568
rtibia 27.6999
rfoot -24.4571 -24.3966
rtoes -17.411
lfemur -32.3085 6.4926 -3.99822
ltibia 24.1343
lfoot -20.8559 12.4257
ltoes -25.4122
338
root 6.87169 17.0338 0.424841 217.051 -0.795511 178.006
lowerback 18.0502 0.212958 -2.32305
upperback 8.48536 -1.479 -0.138911
thorax -0.986859 -1.33936 1.44866
lowerneck -12.2842 -4.85848 -3.52167
upperneck -11.583 -4.34381 8.29657
head -1.33204 -1.43977 3.17545
rclavicle 2.08724e-014 -4.96962e-015
rhumerus -15.6194 38.4894 -83.9023
rradius 77.1938
rwrist -1.11182
rhand -63.3031 74.5152
rfingers 7.12502
rthumb -35.2904 48.0275
lclavicle 2.08724e-014 -4.96962e-015
lhumerus -21.4987 -40.083 84.0242
lradius 78.6056
lwrist -17.015
lhand -32.0743 1349.47
lfingers 7.12502
lthumb -5.32047 599.558
rfemur -30.7023 1.41551 -2.94442
rtibia 27.7765
rfoot -25.1009 -24.1962
rtoes -16.8943
lfemur -32.2441 6.13823 -3.92946
ltibia 24.0819
lfoot -20.7489 12.6963
ltoes -25.7295
339
root 6.87705 17.0411 0.461457 216.863 -0.480055 177.665
lowerback 18.2406 0.310897 -2.77547
upperback 8.582 -1.46917 -0.2772
thorax -0.976461 -1.35922 1.55973
lowerneck -12.3107 -4.8876 -3.56854
upperneck -11.5576 -4.37413 8.40305
head -1.31345 -1.45259 3.21892
rclavicle -4.57205e-015 1.3418e-014
rhumerus -15.1042 38.7867 -83.5577
rradius 77.0677
rwrist -1.59136
rhand -62.9794 78.2647
rfingers 7.12502
rthumb -34.9834 51.7048
lclavicle -4.57205e-015 1.3418e-014
lhumerus -21.0073 -40.4532 83.6346
lradius 78.5394
lwrist -16.1985
lhand -32.9022 1348.8
lfingers 7.12502
lthumb -6.11979 598.91
rfemur -30.715 1.7344 -3.55551
rtibia 27.8921
rfoot -25.368 -24.1825
rtoes -17.1727
lfemur -32.123 5.77613 -4.28745
ltibia 24.0575
lfoot -20.7391 12.6004
ltoes -24.6926
340
root 6.88209 17.039 0.495025 216.737 -0.391624 177.619
lowerback 18.3705 0.360619 -2.84096
upperback 8.54872 -1.42135 -0.333773
thorax -1.0813 -1.33451 1.53259
lowerneck -11.8838 -4.87881 -3.53699
upperneck -11.7242 -4.38067 8.40565
head -1.43953 -1.47459 3.22484
rclavicle 3.77691e-015 9.64106e-015
rhumerus -14.9416 38.8001 -83.5282
rradius 76.7845
rwrist -1.78784
rhand -62.5906 79.0322
rfingers 7.12502
rthumb -34.6145 52.387
lclavicle 3.77691e-015 9.64106e-015
lhumerus -20.8645 -40.9446 83.3441
lradius 78.6939
lwrist -15.3072
lhand -33.6182 1348.16
lfingers 7.12502
lthumb -6.81101 598.285
rfemur -30.759 1.97399 -3.74362
rtibia 28.0942
rfoot -25.4209 -24.1624
rtoes -18.4614
lfemur -32.0385 5.31692 -4.14014
ltibia 24.0832
lfoot -20.9517 12.5208
ltoes -22.7028
341
root 6.88885 17.0318 0.522821 216.71 -0.465078 177.72
lowerback 18.2878 0.399725 -2.69231
upperback 8.48639 -1.32246 -0.320734
thorax -1.11232 -1.27298 1.44327
lowerneck -11.4088 -4.90552 -3.46136
upperneck -11.9234 -4.44296 8.34
head -1.58405 -1.52702 3.19932
rclavicle 1.07344e-014 1.10325e-014
rhumerus -14.828 38.7401 -83.411
rradius 76.5887
rwrist -1.9654
rhand -62.7453 79.7215
rfingers 7.12502
rthumb -34.7613 53.11
lclavicle 1.07344e-014 1.10325e-014
lhumerus -20.5909 -41.3538 82.9197
lradius 78.8822
lwrist -14.8985
lhand -33.4004 1348.32
lfingers 7.12502
lthumb -6.6008 598.44
rfemur -30.8064 2.08129 -3.68589
rtibia 28.2482
rfoot -25.6968 -23.9565
rtoes -17.15
lfemur -32.2302 4.9371 -3.81378
ltibia 24.3679
lfoot -20.9339 12.9636
ltoes -23.5087
